<svg width="18" height="18" viewBox="0 0 18 18" fill="none" xmlns="http://www.w3.org/2000/svg">
<path d="M15.7502 15.7502L12.4929 12.4929M12.4929 12.4929C13.0501 11.9357 13.492 11.2743 13.7935 10.5464C14.0951 9.81832 14.2503 9.0381 14.2503 8.25015C14.2503 7.4622 14.0951 6.68197 13.7935 5.954C13.492 5.22602 13.0501 4.56457 12.4929 4.00741C11.9357 3.45024 11.2743 3.00827 10.5464 2.70673C9.81832 2.4052 9.0381 2.25 8.25015 2.25C7.4622 2.25 6.68197 2.4052 5.954 2.70673C5.22602 3.00827 4.56457 3.45024 4.00741 4.00741C2.88216 5.13266 2.25 6.65882 2.25 8.25015C2.25 9.8415 2.88216 11.3677 4.00741 12.4929C5.13266 13.6181 6.65882 14.2503 8.25015 14.2503C9.8415 14.2503 11.3677 13.6181 12.4929 12.4929Z" stroke="white" stroke-opacity="0.7" stroke-width="1.5" stroke-linecap="round" stroke-linejoin="round"/>
</svg>
